<svg width="85" height="85" viewBox="0 0 85 85" fill="none" xmlns="http://www.w3.org/2000/svg">
<circle cx="42.5" cy="42.5" r="42" stroke="white"/>
<path d="M60.0764 43.0068C60.0767 41.9762 59.9876 40.9474 59.8107 39.932L58.3485 40.1875C59.4371 46.4263 56.82 52.7317 51.6336 56.3657L50.4381 54.4139C50.0337 53.7594 49.9985 52.9419 50.3446 52.2548L50.682 51.5804C50.807 51.3286 51.0643 51.1695 51.3455 51.1706H52.3921C53.3034 51.1735 54.1239 50.6183 54.4598 49.7711L55.464 47.2594C55.5698 46.9967 55.6241 46.7155 55.6234 46.4321V44.7992C55.6245 44.4053 55.4679 44.027 55.1886 43.749L54.2978 42.8586C53.8463 42.4064 53.156 42.2944 52.5841 42.5803L50.7577 43.4939C50.549 43.5983 50.3033 43.5983 50.0942 43.4939L47.1256 42.0096C46.8748 41.8842 46.7168 41.6276 46.7175 41.3475V39.2961C46.7175 38.4763 46.0529 37.8117 45.2332 37.8117C44.8234 37.8117 44.491 37.4794 44.491 37.0696V36.3274C44.491 36.0941 44.6012 35.8741 44.7878 35.7338L47.1629 33.9527L46.2722 32.7652L43.8975 34.5463C43.3383 34.9681 43.0085 35.6273 43.0067 36.3274V37.0696C43.0067 38.2991 44.0036 39.2961 45.2332 39.2961V41.3475C45.2303 42.1915 45.7076 42.9637 46.4639 43.3388L49.4325 44.8231C50.0598 45.1351 50.7968 45.1351 51.4241 44.8231L53.2509 43.9103L54.1413 44.8006V46.4335C54.1416 46.5278 54.1231 46.6212 54.088 46.7089L53.0831 49.221C52.9715 49.5036 52.6979 49.6888 52.3942 49.6877H51.3477C50.5037 49.6848 49.7314 50.1621 49.3567 50.9184L49.019 51.5931C48.4421 52.7379 48.5008 54.1004 49.1741 55.1916L50.3837 57.1666C45.8119 59.7985 40.2476 60.05 35.4569 57.842L36.3675 57.234C36.4886 57.1528 36.631 57.1089 36.777 57.1079H38.6806C39.2717 57.1097 39.8388 56.8748 40.2555 56.4556L42.3544 54.3567C42.7734 53.9399 43.0085 53.3728 43.0067 52.7817V49.354C43.0067 48.9517 42.8977 48.5571 42.6915 48.2117L41.106 45.5606C40.7005 44.8985 39.9805 44.4937 39.2039 44.4912H37.1213C36.3759 44.4904 35.6794 44.8626 35.2659 45.4826L34.4458 46.7176H32.6165C31.7968 46.7176 31.1322 47.3822 31.1322 48.202V49.6196C31.1322 49.8715 31.0043 50.1063 30.7923 50.2429L28.4767 51.7363C26.8159 49.1278 25.9346 46.0991 25.9371 43.0068C25.9371 42.7583 25.9444 42.5111 25.9556 42.2647H27.2464C27.5276 42.264 27.7849 42.4231 27.9099 42.6753L28.7789 44.4169C29.03 44.9195 29.5446 45.2359 30.1067 45.2333H30.8901C31.3565 45.234 31.7961 45.0159 32.0769 44.6437C32.3581 44.2716 32.448 43.7892 32.3197 43.341L31.3743 40.0382H32.839C33.3449 40.0382 33.8352 39.8661 34.2298 39.5501L36.6524 37.6121C37.4326 36.9859 37.7004 35.9168 37.3076 34.9968L36.037 32.0281C35.8906 31.6868 36.0193 31.29 36.3378 31.099L38.2066 29.9778C38.8839 29.5694 39.2952 28.833 39.2876 28.0419L39.2753 26.9562C41.6688 26.5069 44.133 26.5996 46.486 27.228L46.8661 25.797C39.4953 23.826 31.6877 26.7682 27.4511 33.1135C23.2145 39.4588 23.4896 47.7975 28.1353 53.8497C32.781 59.9022 40.7654 62.3233 47.9902 59.8707C55.215 57.4181 60.0753 50.6364 60.0764 43.0068ZM37.7931 27.3074L37.8018 28.0629C37.8051 28.3268 37.6678 28.5721 37.4413 28.7076L35.5717 29.8292C34.6201 30.405 34.2364 31.5929 34.6716 32.6166L35.9421 35.5853C36.0736 35.8918 35.9845 36.2488 35.7239 36.4575L33.3014 38.3952C33.1699 38.4988 33.0068 38.5546 32.839 38.5539H31.3743C30.9079 38.5532 30.4683 38.7717 30.1875 39.1439C29.9063 39.5157 29.8164 39.9984 29.9447 40.4466L30.8901 43.749H30.1067L29.2373 42.011C28.8626 41.2547 28.0904 40.7775 27.2464 40.7804H26.0929C26.9866 34.3713 31.5725 29.0907 37.7931 27.3074ZM29.3286 52.9517L31.5968 51.4898C32.2335 51.0811 32.6176 50.3759 32.6165 49.6196V48.202H34.4458C34.9423 48.202 35.4058 47.9537 35.6808 47.5406L36.5038 46.306C36.6415 46.0994 36.8734 45.9755 37.1213 45.9755H39.2039C39.4608 45.9758 39.6996 46.1088 39.8348 46.3274L41.417 48.9738C41.4862 49.0887 41.5224 49.2199 41.5224 49.354V52.7817C41.5224 52.9789 41.4445 53.168 41.305 53.3072L39.2061 55.4061C39.0669 55.5456 38.8778 55.6239 38.6806 55.6235H36.777C36.3371 55.6235 35.9066 55.754 35.5406 55.9982L33.9577 57.0553C32.1693 55.9924 30.5984 54.5998 29.3286 52.9517Z" fill="white"/>
<path d="M21.5345 43.7291L20.0542 43.8324C20.089 44.3347 20.1415 44.8431 20.2107 45.3424L21.6817 45.1391C21.6172 44.6731 21.5671 44.1944 21.5345 43.7291Z" fill="white"/>
<path d="M23.7851 32.7482L22.4664 32.0669C22.2348 32.5119 22.0156 32.9776 21.8152 33.4421L23.1781 34.0306C23.3665 33.5972 23.5713 33.166 23.7851 32.7482Z" fill="white"/>
<path d="M21.9234 46.5358L20.4702 46.8409C20.5742 47.3359 20.6931 47.8316 20.8326 48.3165L22.2604 47.9135C22.1335 47.4598 22.0201 46.9982 21.9234 46.5358Z" fill="white"/>
<path d="M21.9051 38.0835L20.4505 37.7867C20.3504 38.2785 20.2649 38.7833 20.1982 39.2848L21.6691 39.4816C21.7315 39.0134 21.8108 38.5427 21.9051 38.0835Z" fill="white"/>
<path d="M25.2567 30.3229L24.0424 29.468C23.7532 29.8797 23.4734 30.308 23.2114 30.7407L24.4805 31.5104C24.7255 31.1056 24.9867 30.7066 25.2567 30.3229Z" fill="white"/>
<path d="M22.6613 35.3516L21.2618 34.8588C21.0933 35.3375 20.9404 35.8238 20.8059 36.309L22.237 36.7047C22.3609 36.2532 22.504 35.7984 22.6613 35.3516Z" fill="white"/>
<path d="M21.5296 40.8924L20.0453 40.796C20.0152 41.2805 20 41.7701 20 42.2648V42.3122L21.4843 42.2648C21.4843 41.8042 21.4995 41.3468 21.5296 40.8924Z" fill="white"/>
<path d="M22.6918 49.2642L21.2952 49.7642C21.4658 50.2408 21.6536 50.7151 21.8547 51.1743L23.2151 50.5807C23.0274 50.1509 22.8512 49.7088 22.6918 49.2642Z" fill="white"/>
<path d="M27.0422 28.1185L25.9551 27.1085C25.6115 27.4796 25.276 27.8648 24.9592 28.2551L26.1123 29.1904C26.4077 28.8251 26.7211 28.4646 27.0422 28.1185Z" fill="white"/>
<path d="M39.3704 21.6855L39.1624 20.2146C38.6652 20.2838 38.1615 20.3719 37.6658 20.4759L37.9705 21.9298C38.4329 21.8312 38.9037 21.7493 39.3704 21.6855Z" fill="white"/>
<path d="M42.1967 21.4843L42.1905 20C41.6828 20 41.1722 20.0203 40.6729 20.0558L40.7783 21.5401C41.2469 21.5028 41.7194 21.4843 42.1967 21.4843Z" fill="white"/>
<path d="M36.5931 22.2681L36.1902 20.8396C35.7071 20.9759 35.2193 21.1317 34.7432 21.3034L35.2447 22.7001C35.6893 22.5406 36.1427 22.3957 36.5931 22.2681Z" fill="white"/>
<path d="M29.1091 26.1787L28.1695 25.0299C27.7792 25.3488 27.3947 25.6858 27.0276 26.0308L28.0433 27.1129C28.3862 26.7907 28.7456 26.4762 29.1091 26.1787Z" fill="white"/>
<path d="M33.9288 23.2242L33.3349 21.8645C32.8758 22.0656 32.4155 22.2867 31.9666 22.5211L32.6536 23.8362C33.0707 23.6173 33.4998 23.414 33.9288 23.2242Z" fill="white"/>
<path d="M31.419 24.5356L30.6424 23.2701C30.2119 23.5343 29.7861 23.8163 29.3762 24.108L30.2365 25.3176C30.6196 25.0469 31.0167 24.7816 31.419 24.5356Z" fill="white"/>
<path d="M50.5581 61.3241L51.152 62.6845C51.6144 62.4834 52.0743 62.2631 52.5211 62.0308L51.8384 60.7139C51.4198 60.9306 50.9893 61.1364 50.5581 61.3241Z" fill="white"/>
<path d="M57.4551 56.4444L58.5404 57.4583C58.8847 57.0873 59.221 56.7042 59.5391 56.3132L58.3882 55.3757C58.0907 55.741 57.7758 56.1009 57.4551 56.4444Z" fill="white"/>
<path d="M55.3848 58.3809L56.3226 59.5311C56.7129 59.2126 57.0974 58.8766 57.4663 58.5327L56.4534 57.4478C56.1074 57.771 55.7511 58.0819 55.3848 58.3809Z" fill="white"/>
<path d="M59.2466 54.2447L60.4588 55.1043C60.7497 54.6923 61.031 54.2654 61.293 53.8334L60.0253 53.0619C59.7796 53.4609 59.5184 53.8602 59.2466 54.2447Z" fill="white"/>
<path d="M53.0713 60.0178L53.8424 61.2847C54.2715 61.0227 54.698 60.7422 55.1108 60.4505L54.2527 59.2394C53.8707 59.5119 53.4714 59.7739 53.0713 60.0178Z" fill="white"/>
<path d="M47.8918 62.274L48.2926 63.7036C48.7771 63.5677 49.2649 63.4126 49.7407 63.2434L49.241 61.8453C48.7956 62.0062 48.3437 62.1479 47.8918 62.274Z" fill="white"/>
<path d="M62.9976 43.6831L64.4782 43.7824C64.5123 43.2794 64.5293 42.7688 64.5293 42.2648H63.045C63.045 42.7413 63.0291 43.2142 62.9976 43.6831Z" fill="white"/>
<path d="M62.6152 46.4908L64.0691 46.7876C64.1709 46.2955 64.2568 45.7907 64.3253 45.2899L62.8544 45.0902C62.7906 45.5613 62.7102 46.0313 62.6152 46.4908Z" fill="white"/>
<path d="M61.8533 49.2203L63.2513 49.7168C63.4213 49.2388 63.5757 48.7521 63.7108 48.268L62.2809 47.869C62.1544 48.3195 62.0105 48.7742 61.8533 49.2203Z" fill="white"/>
<path d="M60.7217 51.8221L62.0397 52.506C62.272 52.0606 62.4916 51.5967 62.6927 51.1329L61.3316 50.5389C61.1439 50.9731 60.9384 51.4043 60.7217 51.8221Z" fill="white"/>
<path d="M23.8256 51.8573L22.5098 52.5444C22.7435 52.9897 22.9954 53.4351 23.2574 53.8645L24.5271 53.0905C24.2793 52.6908 24.0448 52.2759 23.8256 51.8573Z" fill="white"/>
<path d="M28.238 59.5573C28.6312 59.8769 29.0389 60.1856 29.4491 60.4752L30.3025 59.2601C29.9162 58.9872 29.539 58.7017 29.1708 58.4038L28.238 59.5573Z" fill="white"/>
<path d="M33.4189 62.703C33.8799 62.9027 34.3564 63.0904 34.8359 63.2604L35.3309 61.8608C34.8855 61.7018 34.4401 61.5275 34.0104 61.3412L33.4189 62.703Z" fill="white"/>
<path d="M30.7188 61.3057C31.1522 61.5691 31.5983 61.8192 32.0451 62.0478L32.7271 60.7287C32.31 60.5135 31.8943 60.2798 31.4892 60.0341L30.7188 61.3057Z" fill="white"/>
<path d="M26.0117 57.4844C26.3582 57.8555 26.7205 58.2153 27.0869 58.5574L28.0994 57.471C27.7566 57.1517 27.4181 56.8147 27.0945 56.4697L26.0117 57.4844Z" fill="white"/>
<path d="M25.3043 54.2751L24.0933 55.1329C24.385 55.5442 24.6945 55.9493 25.0133 56.3414L26.1599 55.4011C25.8631 55.0372 25.5761 54.6589 25.3043 54.2751Z" fill="white"/>
<path d="M45.1167 62.851L45.3178 64.3212C45.8161 64.2527 46.3198 64.1668 46.8155 64.0635L46.5144 62.6104C46.0498 62.706 45.5816 62.7872 45.1167 62.851Z" fill="white"/>
<path d="M39.2598 64.3284C39.7562 64.3954 40.2647 64.4465 40.7713 64.4769L40.8702 62.9926C40.3958 62.9615 39.9215 62.9133 39.4602 62.851L39.2598 64.3284Z" fill="white"/>
<path d="M42.2869 63.0452V64.5295C42.7953 64.5295 43.3059 64.5118 43.8056 64.477L43.7038 62.9927C43.2363 63.0278 42.7641 63.0452 42.2869 63.0452Z" fill="white"/>
<path d="M36.2852 63.717C36.7729 63.8525 37.2701 63.9728 37.7622 64.0739L38.059 62.62C37.5995 62.5258 37.1357 62.4135 36.6816 62.2874L36.2852 63.717Z" fill="white"/>
<path d="M48.3505 26.263L47.9237 33.5215C47.8617 34.5796 48.2549 35.6139 49.0043 36.364L50.444 37.8023L53.0644 30.9841L55.7134 33.6327V36.9087C55.7123 37.4982 55.9471 38.0643 56.3657 38.4796L57.6525 39.7675L59.2267 37.1438L59.6043 37.5207C60.1635 38.0998 60.9911 38.3317 61.7699 38.1281C62.5483 37.9244 63.156 37.3163 63.36 36.5379C63.5637 35.7595 63.3314 34.9315 62.7527 34.3727L62.3758 33.9955L64.9998 32.4209L63.713 31.1323C63.2966 30.713 62.7298 30.4782 62.1388 30.48H58.8614L56.2171 27.8321L63.0393 25.2084L61.5963 23.768C60.8473 23.0178 59.8127 22.625 58.7549 22.6881L51.4964 23.115L49.109 20.7265C48.2277 19.8858 46.8412 19.8858 45.9599 20.7265C45.0902 21.5962 45.0902 23.0059 45.9599 23.8756L48.3505 26.263ZM49.8838 35.1228C49.5439 34.6938 49.3735 34.1545 49.4051 33.6081L49.7544 27.6708L51.9185 29.835L49.8838 35.1228ZM57.3601 37.3663C57.2553 37.2344 57.1981 37.071 57.1977 36.9025V35.1134L58.1468 36.061L57.3601 37.3663ZM62.1381 31.9621C62.3066 31.9625 62.47 32.0198 62.6019 32.1245L61.2944 32.9134L60.3465 31.9665L62.1381 31.9621ZM58.8415 24.1695C59.388 24.1372 59.9275 24.3079 60.3562 24.6482L55.0655 26.683L52.9013 24.5188L58.8415 24.1695ZM47.0101 21.7767C47.2996 21.4875 47.7689 21.4875 48.0588 21.7767L61.7032 35.4214C61.9924 35.711 61.9924 36.1803 61.7032 36.4698C61.4097 36.7507 60.9473 36.7507 60.6538 36.4698L47.0101 22.8254C46.7209 22.5355 46.7209 22.0666 47.0101 21.7767Z" fill="white"/>
</svg>
